<svg width="690" height="107" viewBox="0 0 690 107" fill="none" xmlns="http://www.w3.org/2000/svg">
<path d="M3.58932 104.522C2.55241 104.522 1.67502 104.2 0.957152 103.557C0.319051 102.833 0 101.948 0 100.903V42.1515C0 41.0255 0.319051 40.1408 0.957152 39.4974C1.67502 38.854 2.55241 38.5323 3.58932 38.5323C4.706 38.5323 5.58338 38.854 6.22149 39.4974C6.85959 40.1408 7.17864 41.0255 7.17864 42.1515V46.8564C9.41199 43.9611 12.1239 41.7091 15.3144 40.1006C18.5847 38.4921 22.1341 37.6878 25.9627 37.6878C30.6687 37.6878 34.8563 38.854 38.5254 41.1864C42.1944 43.4383 45.0659 46.5749 47.1397 50.5962C49.2933 46.5749 52.2844 43.4383 56.113 41.1864C59.9416 38.854 64.2488 37.6878 69.0346 37.6878C73.9001 37.6878 78.1674 38.8942 81.8365 41.307C85.5056 43.7198 88.377 47.0575 90.4508 51.3201C92.6044 55.5827 93.6812 60.4887 93.6812 66.0381V100.903C93.6812 101.948 93.3622 102.833 92.7241 103.557C92.086 104.2 91.2086 104.522 90.0919 104.522C89.055 104.522 88.1776 104.2 87.4597 103.557C86.8216 102.833 86.5026 101.948 86.5026 100.903V66.0381C86.5026 59.8453 84.8675 54.7784 81.5972 50.8375C78.4067 46.8966 74.2191 44.9262 69.0346 44.9262C63.531 44.9262 59.0244 46.776 55.5148 50.4756C52.085 54.0948 50.4499 59.0008 50.6094 65.1936C50.6094 65.4349 50.6094 65.7164 50.6094 66.0381V100.903C50.6094 101.948 50.2903 102.833 49.6522 103.557C49.0141 104.2 48.1368 104.522 47.0201 104.522C45.9832 104.522 45.1058 104.2 44.3879 103.557C43.7498 102.833 43.4308 101.948 43.4308 100.903V66.0381C43.4308 59.8453 41.7956 54.7784 38.5254 50.8375C35.3349 46.8966 31.1473 44.9262 25.9627 44.9262C20.4591 44.9262 15.9525 46.6956 12.443 50.2343C8.93342 53.7731 7.17864 58.3574 7.17864 63.9872V100.903C7.17864 101.948 6.85959 102.833 6.22149 103.557C5.58338 104.2 4.706 104.522 3.58932 104.522Z" fill="#4D203E"/>
<path d="M142.989 105.125C136.688 105.125 131.065 103.718 126.12 100.903C121.254 98.0076 117.426 94.0265 114.634 88.9596C111.842 83.8927 110.446 78.1021 110.446 71.5875C110.446 64.9926 111.762 59.2019 114.395 54.2154C117.027 49.1486 120.656 45.1675 125.282 42.2721C129.908 39.3768 135.213 37.9291 141.195 37.9291C147.097 37.9291 152.322 39.3365 156.868 42.1515C161.415 44.886 164.964 48.7062 167.516 53.6122C170.069 58.4378 171.345 64.0274 171.345 70.3811C171.345 71.4267 171.026 72.2711 170.388 72.9145C169.75 73.4775 168.912 73.759 167.875 73.759H117.745C117.984 78.5846 119.22 82.8472 121.454 86.5468C123.687 90.2464 126.638 93.1418 130.307 95.2329C134.056 97.3239 138.283 98.3695 142.989 98.3695C146.1 98.3695 149.211 97.8467 152.322 96.8012C155.512 95.6752 158.025 94.2275 159.859 92.4581C160.497 91.8147 161.255 91.493 162.133 91.493C163.09 91.4126 163.887 91.6539 164.525 92.2169C165.403 92.9407 165.841 93.745 165.841 94.6297C165.921 95.5143 165.562 96.3186 164.765 97.0424C162.212 99.3748 158.862 101.305 154.715 102.833C150.647 104.361 146.738 105.125 142.989 105.125ZM141.195 44.6849C137.047 44.6849 133.298 45.65 129.948 47.5802C126.598 49.5105 123.846 52.2048 121.693 55.6631C119.619 59.041 118.343 62.9819 117.864 67.4858H164.406C163.847 60.73 161.455 55.261 157.227 51.0788C153 46.8162 147.656 44.6849 141.195 44.6849Z" fill="#4D203E"/>
<path d="M190.533 104.522C189.496 104.522 188.619 104.2 187.901 103.557C187.263 102.833 186.944 101.948 186.944 100.903V42.1515C186.944 41.0255 187.263 40.1408 187.901 39.4974C188.619 38.854 189.496 38.5323 190.533 38.5323C191.65 38.5323 192.527 38.854 193.165 39.4974C193.803 40.1408 194.122 41.0255 194.122 42.1515V48.4247C196.755 45.1272 200.025 42.5134 203.933 40.5832C207.921 38.6529 212.228 37.6878 216.855 37.6878C222.598 37.6878 227.742 38.8942 232.289 41.307C236.915 43.6394 240.544 47.0977 243.176 51.682C245.809 56.1859 247.125 61.7755 247.125 68.4509V100.903C247.125 101.948 246.766 102.833 246.048 103.557C245.41 104.2 244.572 104.522 243.535 104.522C242.498 104.522 241.621 104.2 240.903 103.557C240.265 102.833 239.946 101.948 239.946 100.903V68.4509C239.946 63.1427 238.909 58.7595 236.835 55.3012C234.841 51.8428 232.089 49.2692 228.58 47.5802C225.15 45.8109 221.242 44.9262 216.855 44.9262C212.548 44.9262 208.679 45.7707 205.249 47.4596C201.819 49.0681 199.107 51.3201 197.113 54.2154C195.119 57.1108 194.122 60.368 194.122 63.9872V100.903C194.122 101.948 193.803 102.833 193.165 103.557C192.527 104.2 191.65 104.522 190.533 104.522Z" fill="#4D203E"/>
<path d="M289.7 105.246C285.552 105.246 281.205 104.482 276.659 102.954C272.112 101.426 268.324 98.852 265.293 95.2329C264.655 94.4286 264.375 93.5841 264.455 92.6994C264.615 91.7343 265.133 90.93 266.011 90.2866C266.808 89.7236 267.646 89.5226 268.523 89.6834C269.48 89.8443 270.238 90.2866 270.796 91.0105C273.109 93.745 275.901 95.6752 279.171 96.8012C282.521 97.8467 286.151 98.3695 290.059 98.3695C296.759 98.3695 301.505 97.1631 304.297 94.7503C307.088 92.3375 308.484 89.5226 308.484 86.3055C308.484 79.9519 302.382 75.8903 290.179 74.1209C282.202 72.995 276.3 70.8235 272.471 67.6064C268.643 64.3894 266.728 60.6495 266.728 56.3869C266.728 50.355 268.882 45.7707 273.189 42.634C277.576 39.417 283.12 37.8084 289.82 37.8084C295.244 37.8084 299.83 38.8138 303.579 40.8244C307.328 42.7547 310.359 45.3685 312.672 48.666C313.31 49.4703 313.509 50.355 313.27 51.3201C313.11 52.2048 312.512 52.9286 311.475 53.4916C310.678 53.8937 309.84 54.0144 308.963 53.8535C308.085 53.6926 307.328 53.2101 306.69 52.4058C302.622 47.1781 296.919 44.5643 289.58 44.5643C284.555 44.5643 280.647 45.65 277.855 47.8215C275.064 49.993 273.668 52.6069 273.668 55.6631C273.668 58.7997 275.024 61.3734 277.736 63.384C280.448 65.3143 285.074 66.7619 291.614 67.727C297.597 68.5313 302.303 69.8986 305.732 71.8288C309.242 73.759 311.715 76.011 313.15 78.5846C314.666 81.0778 315.424 83.7721 315.424 86.6674C315.424 90.4475 314.227 93.745 311.834 96.5599C309.441 99.3748 306.291 101.546 302.382 103.074C298.474 104.522 294.247 105.246 289.7 105.246Z" fill="#4D203E"/>
<path d="M358.392 104.522C354.005 104.442 350.096 103.436 346.667 101.506C343.237 99.4955 340.565 96.761 338.65 93.3026C336.736 89.7639 335.779 85.7828 335.779 81.3593V47.4596H326.447C325.49 47.4596 324.692 47.1781 324.054 46.6151C323.495 45.9717 323.216 45.1675 323.216 44.2023C323.216 43.2372 323.495 42.4732 324.054 41.9102C324.692 41.2668 325.49 40.9451 326.447 40.9451H335.779V21.2808C335.779 20.1549 336.098 19.2702 336.736 18.6268C337.454 17.9029 338.331 17.541 339.368 17.541C340.485 17.541 341.362 17.9029 342 18.6268C342.718 19.2702 343.077 20.1549 343.077 21.2808V40.9451H358.87C359.827 40.9451 360.585 41.2668 361.143 41.9102C361.782 42.4732 362.101 43.2372 362.101 44.2023C362.101 45.1675 361.782 45.9717 361.143 46.6151C360.585 47.1781 359.827 47.4596 358.87 47.4596H343.077V81.3593C343.077 86.024 344.513 89.8443 347.384 92.8201C350.256 95.7154 353.965 97.1631 358.511 97.1631H361.143C362.26 97.1631 363.138 97.525 363.776 98.2488C364.493 98.8923 364.852 99.7769 364.852 100.903C364.852 101.948 364.493 102.833 363.776 103.557C363.138 104.2 362.26 104.522 361.143 104.522H358.392Z" fill="#4D203E"/>
<path d="M389.342 104.852C387.383 104.852 385.735 104.181 384.399 102.838C383.063 101.496 382.395 99.8398 382.395 97.8708V6.98118C382.395 4.92262 383.063 3.26683 384.399 2.0138C385.735 0.671266 387.383 0 389.342 0H413.392C420.072 0 425.995 1.43204 431.162 4.29611C436.328 7.07068 440.336 10.9193 443.186 15.8419C446.126 20.7645 447.595 26.4927 447.595 33.0263C447.595 39.4705 445.992 45.1539 442.786 50.0765C439.579 54.9097 435.214 58.5793 429.692 61.0853L450.134 94.1117C451.737 96.7072 451.96 99.1685 450.802 101.496C449.644 103.733 447.64 104.852 444.79 104.852C442.207 104.852 440.203 103.733 438.777 101.496L415.797 64.4417C414.995 64.4417 414.193 64.4417 413.392 64.4417H396.29V97.8708C396.29 99.8398 395.622 101.496 394.286 102.838C393.039 104.181 391.391 104.852 389.342 104.852ZM396.29 51.5533H413.392C419.449 51.5533 424.437 49.8528 428.356 46.4517C432.275 42.9611 434.235 38.486 434.235 33.0263C434.235 27.1192 432.275 22.2861 428.356 18.527C424.437 14.7679 419.449 12.8883 413.392 12.8883H396.29V51.5533Z" fill="#E72A60"/>
<path d="M510.503 107C501.952 107 494.381 105.434 487.79 102.301C481.198 99.079 476.032 94.6487 472.291 89.01C468.639 83.3714 466.813 76.9272 466.813 69.6775V6.98118C466.813 4.92262 467.481 3.26683 468.817 2.0138C470.153 0.671266 471.801 0 473.761 0C475.809 0 477.457 0.671266 478.704 2.0138C480.04 3.26683 480.708 4.92262 480.708 6.98118V69.6775C480.708 74.5107 481.955 78.8068 484.449 82.5659C487.033 86.2355 490.551 89.1443 495.005 91.2923C499.547 93.3509 504.713 94.3802 510.503 94.3802C516.115 94.3802 521.058 93.3509 525.334 91.2923C529.698 89.1443 533.083 86.2355 535.488 82.5659C537.982 78.8068 539.229 74.5107 539.229 69.6775V6.98118C539.229 4.92262 539.897 3.26683 541.233 2.0138C542.569 0.671266 544.217 0 546.176 0C548.225 0 549.873 0.671266 551.12 2.0138C552.367 3.26683 552.991 4.92262 552.991 6.98118V69.6775C552.991 76.9272 551.165 83.3714 547.513 89.01C543.95 94.6487 538.962 99.079 532.548 102.301C526.135 105.434 518.787 107 510.503 107Z" fill="#E72A60"/>
<path d="M571.489 104.852C568.995 104.852 567.08 103.778 565.744 101.63C564.408 99.4818 564.274 97.1995 565.343 94.7829L602.887 4.69887C604.223 1.56629 606.405 0 609.434 0C612.64 0 614.823 1.56629 615.981 4.69887L653.658 95.0514C654.638 97.5575 654.46 99.8398 653.124 101.898C651.877 103.867 649.962 104.852 647.379 104.852C646.042 104.852 644.751 104.494 643.504 103.778C642.346 102.972 641.5 101.898 640.965 100.556L633.483 81.7603H585.518L577.902 100.556C577.279 101.988 576.343 103.062 575.096 103.778C573.938 104.494 572.736 104.852 571.489 104.852ZM590.194 70.2146H628.807L609.701 22.4203L590.194 70.2146Z" fill="#E72A60"/>
<path d="M687.232 85.9886L682.328 75.7691L677.082 64.9013L671.874 75.7691L666.932 85.9886C665.55 88.0379 664.809 90.4544 664.803 92.9287C664.803 96.1954 666.097 99.3282 668.4 101.638C670.703 103.948 673.826 105.246 677.082 105.246C680.339 105.246 683.462 103.948 685.764 101.638C688.067 99.3282 689.361 96.1954 689.361 92.9287C689.356 90.4544 688.614 88.0379 687.232 85.9886Z" fill="#E72A60"/>
</svg>
